# xmcd
#
# Track frame offsets: 
#        150
#        14489
#        30831
#        45620
#        59434
#        76694
#        91109
#        106512
#
# Disc length: 1612 seconds
#
# Revision: 0
# Processed by: cddbd v1.5.2PL0 Copyright (c) Steve Scherf et al.
# Submitted via: ExactAudioCopy v0.99pb5
#
DISCID=49064a08
DTITLE=American Diary - The Brightest Colors EP
DYEAR=2008
DGENRE=Pop Punk
TTITLE0=The Goodbye Celebration
TTITLE1=The Crush
TTITLE2=We Could Be Heros
TTITLE3=Life Without Living
TTITLE4=Til Death Do Us Part
TTITLE5=Liberationtoxication
TTITLE6=I Love You I Like You
TTITLE7=Heart Attack Pact
EXTD=
EXTT0=
EXTT1=
EXTT2=
EXTT3=
EXTT4=
EXTT5=
EXTT6=
EXTT7=
PLAYORDER=
